solid Mesh
  facet normal -1 0 0
    outer loop
      vertex 0 -22.45 -2
      vertex 0 -22.45 -10
      vertex 0 -24.45 -10
    endloop
  endfacet
  facet normal -1 0 0
    outer loop
      vertex 0 24.45 -10
      vertex 0 22.45 -10
      vertex 0 24.45 1.19262e-14
    endloop
  endfacet
  facet normal -1 0 0
    outer loop
      vertex 0 22.45 -10
      vertex 0 22.45 -2
      vertex 0 24.45 1.19262e-14
    endloop
  endfacet
  facet normal -1 0 0
    outer loop
      vertex 0 24.45 1.19262e-14
      vertex 0 22.45 -2
      vertex 0 -10.45 0
    endloop
  endfacet
  facet normal -1 0 0
    outer loop
      vertex 0 -11.45 9
      vertex 0 -22.45 -2
      vertex 0 -23.45 9
    endloop
  endfacet
  facet normal -1 0 0
    outer loop
      vertex 0 -22.45 -2
      vertex 0 -24.45 -10
      vertex 0 -23.45 9
    endloop
  endfacet
  facet normal -1 0 0
    outer loop
      vertex 0 -23.45 9
      vertex 0 -24.45 -10
      vertex 0 -24.45 20
    endloop
  endfacet
  facet normal -1 0 0
    outer loop
      vertex 0 22.45 -2
      vertex 0 -22.45 -2
      vertex 0 -10.45 0
    endloop
  endfacet
  facet normal -1 0 0
    outer loop
      vertex 0 -22.45 -2
      vertex 0 -11.45 9
      vertex 0 -10.45 0
    endloop
  endfacet
  facet normal -1 0 0
    outer loop
      vertex 0 -10.45 0
      vertex 0 -11.45 9
      vertex 0 -10.45 20
    endloop
  endfacet
  facet normal -1 0 0
    outer loop
      vertex 0 -11.45 9
      vertex 0 -11.45 19
      vertex 0 -10.45 20
    endloop
  endfacet
  facet normal -1 0 0
    outer loop
      vertex 0 -10.45 20
      vertex 0 -11.45 19
      vertex 0 -24.45 20
    endloop
  endfacet
  facet normal -1 0 0
    outer loop
      vertex 0 -11.45 19
      vertex 0 -23.45 19
      vertex 0 -24.45 20
    endloop
  endfacet
  facet normal -1 0 0
    outer loop
      vertex 0 -24.45 20
      vertex 0 -23.45 19
      vertex 0 -23.45 9
    endloop
  endfacet
  facet normal 1 0 0
    outer loop
      vertex 15 22.45 -2
      vertex 15 22.45 -10
      vertex 15 24.45 -10
    endloop
  endfacet
  facet normal 1 0 0
    outer loop
      vertex 15 -24.45 -10
      vertex 15 -23.45 9
      vertex 15 -24.45 20
    endloop
  endfacet
  facet normal 1 0 0
    outer loop
      vertex 15 -23.45 9
      vertex 15 -23.45 19
      vertex 15 -24.45 20
    endloop
  endfacet
  facet normal 1 0 0
    outer loop
      vertex 15 -24.45 20
      vertex 15 -23.45 19
      vertex 15 -10.45 20
    endloop
  endfacet
  facet normal 1 0 0
    outer loop
      vertex 15 24.45 -10
      vertex 15 24.45 1.19262e-14
      vertex 15 22.45 -2
    endloop
  endfacet
  facet normal 1 0 0
    outer loop
      vertex 15 24.45 1.19262e-14
      vertex 15 -10.45 0
      vertex 15 22.45 -2
    endloop
  endfacet
  facet normal 1 0 0
    outer loop
      vertex 15 22.45 -2
      vertex 15 -10.45 0
      vertex 15 -22.45 -2
    endloop
  endfacet
  facet normal 1 0 0
    outer loop
      vertex 15 -23.45 19
      vertex 15 -11.45 19
      vertex 15 -10.45 20
    endloop
  endfacet
  facet normal 1 0 0
    outer loop
      vertex 15 -11.45 19
      vertex 15 -11.45 9
      vertex 15 -10.45 20
    endloop
  endfacet
  facet normal 1 0 0
    outer loop
      vertex 15 -10.45 20
      vertex 15 -11.45 9
      vertex 15 -10.45 0
    endloop
  endfacet
  facet normal 1 0 0
    outer loop
      vertex 15 -11.45 9
      vertex 15 -23.45 9
      vertex 15 -10.45 0
    endloop
  endfacet
  facet normal 1 0 0
    outer loop
      vertex 15 -10.45 0
      vertex 15 -23.45 9
      vertex 15 -22.45 -2
    endloop
  endfacet
  facet normal 1 0 0
    outer loop
      vertex 15 -23.45 9
      vertex 15 -24.45 -10
      vertex 15 -22.45 -2
    endloop
  endfacet
  facet normal 1 0 0
    outer loop
      vertex 15 -22.45 -2
      vertex 15 -24.45 -10
      vertex 15 -22.45 -10
    endloop
  endfacet
  facet normal 0 1 0
    outer loop
      vertex 15 -23.45 19
      vertex 15 -23.45 9
      vertex 0 -23.45 19
    endloop
  endfacet
  facet normal 0 1 0
    outer loop
      vertex 15 -23.45 9
      vertex 0 -23.45 9
      vertex 0 -23.45 19
    endloop
  endfacet
  facet normal 0 0 -1
    outer loop
      vertex 15 24.45 -10
      vertex 15 22.45 -10
      vertex 0 24.45 -10
    endloop
  endfacet
  facet normal 0 0 -1
    outer loop
      vertex 15 22.45 -10
      vertex 0 22.45 -10
      vertex 0 24.45 -10
    endloop
  endfacet
  facet normal 0 -1 0
    outer loop
      vertex 15 22.45 -10
      vertex 15 22.45 -2
      vertex 0 22.45 -10
    endloop
  endfacet
  facet normal 0 -1 0
    outer loop
      vertex 15 22.45 -2
      vertex 0 22.45 -2
      vertex 0 22.45 -10
    endloop
  endfacet
  facet normal 0 0 -1
    outer loop
      vertex 15 22.45 -2
      vertex 15 -22.45 -2
      vertex 0 22.45 -2
    endloop
  endfacet
  facet normal 0 0 -1
    outer loop
      vertex 15 -22.45 -2
      vertex 0 -22.45 -2
      vertex 0 22.45 -2
    endloop
  endfacet
  facet normal 0 1 0
    outer loop
      vertex 15 -22.45 -2
      vertex 15 -22.45 -10
      vertex 0 -22.45 -2
    endloop
  endfacet
  facet normal 0 1 0
    outer loop
      vertex 15 -22.45 -10
      vertex 0 -22.45 -10
      vertex 0 -22.45 -2
    endloop
  endfacet
  facet normal 0 0 -1
    outer loop
      vertex 15 -22.45 -10
      vertex 15 -24.45 -10
      vertex 0 -22.45 -10
    endloop
  endfacet
  facet normal 0 0 -1
    outer loop
      vertex 15 -24.45 -10
      vertex 0 -24.45 -10
      vertex 0 -22.45 -10
    endloop
  endfacet
  facet normal 0 -1 0
    outer loop
      vertex 15 -24.45 -10
      vertex 15 -24.45 20
      vertex 0 -24.45 -10
    endloop
  endfacet
  facet normal 0 -1 0
    outer loop
      vertex 15 -24.45 20
      vertex 0 -24.45 20
      vertex 0 -24.45 -10
    endloop
  endfacet
  facet normal 0 0 1
    outer loop
      vertex 15 -24.45 20
      vertex 15 -10.45 20
      vertex 0 -24.45 20
    endloop
  endfacet
  facet normal 0 0 1
    outer loop
      vertex 15 -10.45 20
      vertex 0 -10.45 20
      vertex 0 -24.45 20
    endloop
  endfacet
  facet normal 0 -1 0
    outer loop
      vertex 15 -11.45 9
      vertex 15 -11.45 19
      vertex 0 -11.45 9
    endloop
  endfacet
  facet normal 0 -1 0
    outer loop
      vertex 15 -11.45 19
      vertex 0 -11.45 19
      vertex 0 -11.45 9
    endloop
  endfacet
  facet normal 0 0 -1
    outer loop
      vertex 15 -11.45 19
      vertex 15 -23.45 19
      vertex 0 -11.45 19
    endloop
  endfacet
  facet normal 0 0 -1
    outer loop
      vertex 15 -23.45 19
      vertex 0 -23.45 19
      vertex 0 -11.45 19
    endloop
  endfacet
  facet normal 0 0 1
    outer loop
      vertex 15 -23.45 9
      vertex 15 -11.45 9
      vertex 0 -23.45 9
    endloop
  endfacet
  facet normal 0 0 1
    outer loop
      vertex 15 -11.45 9
      vertex 0 -11.45 9
      vertex 0 -23.45 9
    endloop
  endfacet
  facet normal 0 1 0
    outer loop
      vertex 15 24.45 1.19262e-14
      vertex 15 24.45 -10
      vertex 0 24.45 1.19262e-14
    endloop
  endfacet
  facet normal 0 1 0
    outer loop
      vertex 15 24.45 -10
      vertex 0 24.45 -10
      vertex 0 24.45 1.19262e-14
    endloop
  endfacet
  facet normal 0 1 0
    outer loop
      vertex 15 -10.45 20
      vertex 15 -10.45 0
      vertex 0 -10.45 20
    endloop
  endfacet
  facet normal 0 1 0
    outer loop
      vertex 15 -10.45 0
      vertex 0 -10.45 0
      vertex 0 -10.45 20
    endloop
  endfacet
  facet normal 0 -3.41726e-16 1
    outer loop
      vertex 15 -10.45 0
      vertex 15 24.45 1.19262e-14
      vertex 0 -10.45 0
    endloop
  endfacet
  facet normal 0 -3.41726e-16 1
    outer loop
      vertex 15 24.45 1.19262e-14
      vertex 0 24.45 1.19262e-14
      vertex 0 -10.45 0
    endloop
  endfacet
endsolid Mesh
